<?xml version="1.0" encoding="UTF-8"?>
<svg width="532px" height="442px" viewBox="0 0 532 442" version="1.1" xmlns="http://www.w3.org/2000/svg" xmlns:xlink="http://www.w3.org/1999/xlink">
    <title>il_customizable shop</title>
    <defs>
        <filter id="filter-1">
            <feColorMatrix in="SourceGraphic" type="matrix" values="0 0 0 0 0.847000 0 0 0 0 0.847000 0 0 0 0 0.847000 0 0 0 1.000000 0"></feColorMatrix>
        </filter>
        <rect id="path-2" x="30" y="0" width="336" height="276" rx="12"></rect>
        <filter x="-33.9%" y="-37.7%" width="186.3%" height="205.1%" filterUnits="objectBoundingBox" id="filter-3">
            <feOffset dx="31" dy="41" in="SourceAlpha" result="shadowOffsetOuter1"></feOffset>
            <feGaussianBlur stdDeviation="41.5" in="shadowOffsetOuter1" result="shadowBlurOuter1"></feGaussianBlur>
            <feColorMatrix values="0 0 0 0 0   0 0 0 0 0   0 0 0 0 0  0 0 0 0.12 0" type="matrix" in="shadowBlurOuter1"></feColorMatrix>
        </filter>
        <path d="M11.6297833,-4.69857164e-16 L137.302217,-7.7103803e-15 C141.346146,4.479953e-15 142.812572,0.421056972 144.290972,1.21171394 C145.769372,2.00237092 146.929629,3.16262789 147.720286,4.64102789 C148.510943,6.11942789 148.932,7.58585426 148.932,11.6297833 L148.932,108.358217 C148.932,112.402146 148.510943,113.868572 147.720286,115.346972 C146.929629,116.825372 145.769372,117.985629 144.290972,118.776286 C142.812572,119.566943 141.346146,119.988 137.302217,119.988 L11.6297833,119.988 C7.58585426,119.988 6.11942789,119.566943 4.64102789,118.776286 C3.16262789,117.985629 2.00237092,116.825372 1.21171394,115.346972 C0.421056972,113.868572 2.82192551e-15,112.402146 -4.85677391e-15,108.358217 L1.22007225e-15,11.6297833 C-7.08897112e-16,7.58585426 0.421056972,6.11942789 1.21171394,4.64102789 C2.00237092,3.16262789 3.16262789,2.00237092 4.64102789,1.21171394 C6.11942789,0.421056972 7.58585426,2.73000543e-16 11.6297833,-4.69857164e-16 Z" id="path-4"></path>
        <filter x="-32.2%" y="-40.0%" width="180.6%" height="200.0%" filterUnits="objectBoundingBox" id="filter-5">
            <feOffset dx="12" dy="12" in="SourceAlpha" result="shadowOffsetOuter1"></feOffset>
            <feGaussianBlur stdDeviation="18" in="shadowOffsetOuter1" result="shadowBlurOuter1"></feGaussianBlur>
            <feColorMatrix values="0 0 0 0 0   0 0 0 0 0   0 0 0 0 0  0 0 0 0.08 0" type="matrix" in="shadowBlurOuter1"></feColorMatrix>
        </filter>
        <path d="M11.6297833,-4.69857164e-16 L137.302217,-7.7103803e-15 C141.346146,4.479953e-15 142.812572,0.421056972 144.290972,1.21171394 C145.769372,2.00237092 146.929629,3.16262789 147.720286,4.64102789 C148.510943,6.11942789 148.932,7.58585426 148.932,11.6297833 L148.932,108.358217 C148.932,112.402146 148.510943,113.868572 147.720286,115.346972 C146.929629,116.825372 145.769372,117.985629 144.290972,118.776286 C142.812572,119.566943 141.346146,119.988 137.302217,119.988 L11.6297833,119.988 C7.58585426,119.988 6.11942789,119.566943 4.64102789,118.776286 C3.16262789,117.985629 2.00237092,116.825372 1.21171394,115.346972 C0.421056972,113.868572 2.82192551e-15,112.402146 -4.85677391e-15,108.358217 L1.22007225e-15,11.6297833 C-7.08897112e-16,7.58585426 0.421056972,6.11942789 1.21171394,4.64102789 C2.00237092,3.16262789 3.16262789,2.00237092 4.64102789,1.21171394 C6.11942789,0.421056972 7.58585426,2.73000543e-16 11.6297833,-4.69857164e-16 Z" id="path-6"></path>
        <filter x="-32.2%" y="-40.0%" width="180.6%" height="200.0%" filterUnits="objectBoundingBox" id="filter-7">
            <feOffset dx="12" dy="12" in="SourceAlpha" result="shadowOffsetOuter1"></feOffset>
            <feGaussianBlur stdDeviation="18" in="shadowOffsetOuter1" result="shadowBlurOuter1"></feGaussianBlur>
            <feColorMatrix values="0 0 0 0 0   0 0 0 0 0   0 0 0 0 0  0 0 0 0.08 0" type="matrix" in="shadowBlurOuter1"></feColorMatrix>
        </filter>
        <path d="M0,24 L56,24 C56,39.463973 43.463973,52 28,52 C12.536027,52 -1.65892318e-15,39.463973 0,24 L0,24 L0,24 Z" id="path-8"></path>
        <path d="M0,24 L56,24 C56,39.463973 43.463973,52 28,52 C12.536027,52 -1.65892318e-15,39.463973 0,24 L0,24 L0,24 Z" id="path-9"></path>
        <path d="M0,24 L56,24 C56,39.463973 43.463973,52 28,52 C12.536027,52 -1.65892318e-15,39.463973 0,24 L0,24 L0,24 Z" id="path-10"></path>
        <path d="M0,24 L56,24 C56,39.463973 43.463973,52 28,52 C12.536027,52 -1.65892318e-15,39.463973 0,24 L0,24 L0,24 Z" id="path-11"></path>
        <path d="M0,24 L56,24 C56,39.463973 43.463973,52 28,52 C12.536027,52 -1.65892318e-15,39.463973 0,24 L0,24 L0,24 Z" id="path-12"></path>
        <path d="M0,24 L56,24 C56,39.463973 43.463973,52 28,52 C12.536027,52 -1.65892318e-15,39.463973 0,24 L0,24 L0,24 Z" id="path-13"></path>
        <path d="M0,24 L56,24 C56,39.463973 43.463973,52 28,52 C12.536027,52 -1.65892318e-15,39.463973 0,24 L0,24 L0,24 Z" id="path-14"></path>
    </defs>
    <g id="Design" stroke="none" stroke-width="1" fill="none" fill-rule="evenodd">
        <g id="Homepage-Alt" transform="translate(-790.000000, -2348.000000)">
            <g id="Section" transform="translate(150.000000, 2318.000000)">
                <g id="il_customizable-shop" transform="translate(640.000000, 72.000000)">
                    <g id="elements" transform="translate(250.000000, 205.000000) scale(-1, 1) translate(-250.000000, -205.000000) translate(0.000000, 91.000000)">
                        <g filter="url(#filter-1)" id="Group-6-Copy-2">
                            <g transform="translate(249.500000, 113.412229) scale(1, -1) translate(-249.500000, -113.412229) translate(0.000000, 0.412229)">
                                <path d="M7.796875,0 L7.796875,7.32829822 L0,7.32829822 L0,0 L7.796875,0 Z M62.375,0 L62.375,7.32829822 L54.578125,7.32829822 L54.578125,0 L62.375,0 Z M116.953125,0 L116.953125,7.32829822 L109.15625,7.32829822 L109.15625,0 L116.953125,0 Z M171.53125,0 L171.53125,7.32829822 L163.734375,7.32829822 L163.734375,0 L171.53125,0 Z M226.109375,0 L226.109375,7.32829822 L218.3125,7.32829822 L218.3125,0 L226.109375,0 Z M335.265625,0 L335.265625,7.32829822 L327.46875,7.32829822 L327.46875,0 L335.265625,0 Z M389.84375,0 L389.84375,7.32829822 L382.046875,7.32829822 L382.046875,0 L389.84375,0 Z M444.421875,0 L444.421875,7.32829822 L436.625,7.32829822 L436.625,0 L444.421875,0 Z M499,0 L499,7.32829822 L491.203125,7.32829822 L491.203125,0 L499,0 Z" id="Combined-Shape-Copy-5" fill="#D8D8DE"></path>
                                <path d="M7.796875,53.3918871 L7.796875,60.7201853 L0,60.7201853 L0,53.3918871 L7.796875,53.3918871 Z M62.375,53.3918871 L62.375,60.7201853 L54.578125,60.7201853 L54.578125,53.3918871 L62.375,53.3918871 Z M116.953125,53.3918871 L116.953125,60.7201853 L109.15625,60.7201853 L109.15625,53.3918871 L116.953125,53.3918871 Z M171.53125,53.3918871 L171.53125,60.7201853 L163.734375,60.7201853 L163.734375,53.3918871 L171.53125,53.3918871 Z M280.6875,53.3918871 L280.6875,60.7201853 L272.890625,60.7201853 L272.890625,53.3918871 L280.6875,53.3918871 Z M335.265625,53.3918871 L335.265625,60.7201853 L327.46875,60.7201853 L327.46875,53.3918871 L335.265625,53.3918871 Z M389.84375,53.3918871 L389.84375,60.7201853 L382.046875,60.7201853 L382.046875,53.3918871 L389.84375,53.3918871 Z M444.421875,53.3918871 L444.421875,60.7201853 L436.625,60.7201853 L436.625,53.3918871 L444.421875,53.3918871 Z M499,53.3918871 L499,60.7201853 L491.203125,60.7201853 L491.203125,53.3918871 L499,53.3918871 Z" id="Combined-Shape-Copy-6" fill="#D8D8DE"></path>
                                <path d="M7.796875,107.830674 L7.796875,115.158972 L0,115.158972 L0,107.830674 L7.796875,107.830674 Z M62.375,107.830674 L62.375,115.158972 L54.578125,115.158972 L54.578125,107.830674 L62.375,107.830674 Z M116.953125,107.830674 L116.953125,115.158972 L109.15625,115.158972 L109.15625,107.830674 L116.953125,107.830674 Z M171.53125,107.830674 L171.53125,115.158972 L163.734375,115.158972 L163.734375,107.830674 L171.53125,107.830674 Z M226.109375,107.830674 L226.109375,115.158972 L218.3125,115.158972 L218.3125,107.830674 L226.109375,107.830674 Z M280.6875,107.830674 L280.6875,115.158972 L272.890625,115.158972 L272.890625,107.830674 L280.6875,107.830674 Z M335.265625,107.830674 L335.265625,115.158972 L327.46875,115.158972 L327.46875,107.830674 L335.265625,107.830674 Z M389.84375,107.830674 L389.84375,115.158972 L382.046875,115.158972 L382.046875,107.830674 L389.84375,107.830674 Z M444.421875,107.830674 L444.421875,115.158972 L436.625,115.158972 L436.625,107.830674 L444.421875,107.830674 Z M499,107.830674 L499,115.158972 L491.203125,115.158972 L491.203125,107.830674 L499,107.830674 Z" id="Combined-Shape-Copy-7" fill="#D8D8DE"></path>
                                <path d="M7.796875,163.31636 L7.796875,170.644659 L0,170.644659 L0,163.31636 L7.796875,163.31636 Z M62.375,163.31636 L62.375,170.644659 L54.578125,170.644659 L54.578125,163.31636 L62.375,163.31636 Z M171.53125,163.31636 L171.53125,170.644659 L163.734375,170.644659 L163.734375,163.31636 L171.53125,163.31636 Z M226.109375,163.31636 L226.109375,170.644659 L218.3125,170.644659 L218.3125,163.31636 L226.109375,163.31636 Z M280.6875,163.31636 L280.6875,170.644659 L272.890625,170.644659 L272.890625,163.31636 L280.6875,163.31636 Z M335.265625,163.31636 L335.265625,170.644659 L327.46875,170.644659 L327.46875,163.31636 L335.265625,163.31636 Z M389.84375,163.31636 L389.84375,170.644659 L382.046875,170.644659 L382.046875,163.31636 L389.84375,163.31636 Z M444.421875,163.31636 L444.421875,170.644659 L436.625,170.644659 L436.625,163.31636 L444.421875,163.31636 Z M499,163.31636 L499,170.644659 L491.203125,170.644659 L491.203125,163.31636 L499,163.31636 Z" id="Combined-Shape-Copy-8" fill="#D8D8DE"></path>
                                <path d="M7.796875,217.755147 L7.796875,225.083445 L0,225.083445 L0,217.755147 L7.796875,217.755147 Z M62.375,217.755147 L62.375,225.083445 L54.578125,225.083445 L54.578125,217.755147 L62.375,217.755147 Z M116.953125,217.755147 L116.953125,225.083445 L109.15625,225.083445 L109.15625,217.755147 L116.953125,217.755147 Z M171.53125,217.755147 L171.53125,225.083445 L163.734375,225.083445 L163.734375,217.755147 L171.53125,217.755147 Z M226.109375,217.755147 L226.109375,225.083445 L218.3125,225.083445 L218.3125,217.755147 L226.109375,217.755147 Z M280.6875,217.755147 L280.6875,225.083445 L272.890625,225.083445 L272.890625,217.755147 L280.6875,217.755147 Z M335.265625,217.755147 L335.265625,225.083445 L327.46875,225.083445 L327.46875,217.755147 L335.265625,217.755147 Z M444.421875,217.755147 L444.421875,225.083445 L436.625,225.083445 L436.625,217.755147 L444.421875,217.755147 Z M499,217.755147 L499,225.083445 L491.203125,225.083445 L491.203125,217.755147 L499,217.755147 Z" id="Combined-Shape-Copy-9" fill="#D8D8DE"></path>
                            </g>
                        </g>
                        <g id="Group-9" transform="translate(110.000000, 0.412229)" fill="#C0B4F4">
                            <rect id="Rectangle-Copy-5" x="157.463737" y="218.755147" width="68" height="7.32829822"></rect>
                            <rect id="Rectangle-Copy-2" x="0" y="54.4387868" width="61.7947616" height="7.32829822"></rect>
                            <rect id="Rectangle-Copy-7" x="272.315898" y="0" width="117.30531" height="7.32829822"></rect>
                        </g>
                    </g>
                    <g id="Group-8" transform="translate(52.000000, 0.000000)">
                        <g id="Rectangle">
                            <use fill="black" fill-opacity="1" filter="url(#filter-3)" xlink:href="#path-2"></use>
                            <use fill="#FFFFFF" fill-rule="evenodd" xlink:href="#path-2"></use>
                        </g>
                        <g transform="translate(0.000000, 118.000000)">
                            <g id="Rectangle">
                                <use fill="black" fill-opacity="1" filter="url(#filter-5)" xlink:href="#path-4"></use>
                                <use fill="#FFFFFF" fill-rule="evenodd" xlink:href="#path-4"></use>
                            </g>
                            <text id="$16.00" font-family="Inter-Regular_Bold, Inter" font-size="10.584" font-weight="bold" fill="#0A1730">
                                <tspan x="100.548" y="95.968">$16.00</tspan>
                            </text>
                            <rect id="Rectangle-Copy-4" fill="#E8E8E8" x="5.94" y="5.94" width="136.836" height="73.872" rx="6.048"></rect>
                            <rect id="Rectangle-Copy" fill="#E8E8E8" x="12.096" y="89.748" width="79.38" height="6.048" rx="1.512"></rect>
                            <rect id="Rectangle-Copy-5" fill="#E8E8E8" x="12.096" y="104.868" width="18.144" height="6.048" rx="1.512"></rect>
                            <rect id="Rectangle-Copy-6" fill="#E8E8E8" x="36.288" y="104.868" width="18.144" height="6.048" rx="1.512"></rect>
                        </g>
                        <g id="Group-8-Copy" transform="translate(181.000000, 118.000000)">
                            <g id="Rectangle">
                                <use fill="black" fill-opacity="1" filter="url(#filter-7)" xlink:href="#path-6"></use>
                                <use fill="#FFFFFF" fill-rule="evenodd" xlink:href="#path-6"></use>
                            </g>
                            <text id="$23.00" font-family="Inter-Regular_Bold, Inter" font-size="10.584" font-weight="bold" fill="#0A1730">
                                <tspan x="100.548" y="95.968">$23.00</tspan>
                            </text>
                            <rect id="Rectangle-Copy-4" fill="#E8E8E8" x="5.94" y="5.94" width="136.836" height="73.872" rx="6.048"></rect>
                            <rect id="Rectangle-Copy" fill="#E8E8E8" x="12.096" y="89.748" width="79.38" height="6.048" rx="1.512"></rect>
                            <rect id="Rectangle-Copy-5" fill="#E8E8E8" x="12.096" y="104.868" width="18.144" height="6.048" rx="1.512"></rect>
                            <rect id="Rectangle-Copy-6" fill="#E8E8E8" x="36.288" y="104.868" width="36.144" height="6.048" rx="1.512"></rect>
                        </g>
                        <path d="M42,0 L354,0 C360.627417,-1.21743675e-15 366,5.372583 366,12 L366,32 L366,32 L30,32 L30,12 C30,5.372583 35.372583,1.21743675e-15 42,0 Z" id="Rectangle-Copy-3" fill="#0A1730"></path>
                        <circle id="Oval" fill="#FFFFFF" cx="51" cy="16" r="5"></circle>
                        <circle id="Oval-Copy" fill="#FFFFFF" cx="67" cy="16" r="5"></circle>
                        <circle id="Oval-Copy-2" fill="#FFFFFF" cx="83" cy="16" r="5"></circle>
                    </g>
                    <g id="Group-43" transform="translate(54.000000, 32.000000)">
                        <g id="Group-41" transform="translate(168.000000, 0.000000)">
                            <polygon id="Rectangle" fill="#E7E7E7" points="4 0 52 0 56 24 0 24"></polygon>
                            <g id="Rectangle-Copy-11">
                                <use fill="#E7E7E7" xlink:href="#path-8"></use>
                                <use fill-opacity="0.04" fill="#000000" xlink:href="#path-8"></use>
                            </g>
                        </g>
                        <g id="Group-38" transform="translate(112.000000, 0.000000)">
                            <polygon id="Rectangle-Copy-18" fill="#D8D8D8" points="12 0 60 0 56 24 0 24"></polygon>
                            <g id="Rectangle-Copy-19">
                                <use fill="#D8D8D8" xlink:href="#path-9"></use>
                                <use fill-opacity="0.04" fill="#000000" xlink:href="#path-9"></use>
                            </g>
                        </g>
                        <g id="Group-42" transform="translate(306.000000, 26.000000) scale(-1, 1) translate(-306.000000, -26.000000) translate(220.000000, 0.000000)">
                            <g id="Group-38-Copy" transform="translate(112.000000, 0.000000)">
                                <polygon id="Rectangle-Copy-18" fill="#D8D8D8" points="12 0 60 0 56 24 0 24"></polygon>
                                <g id="Rectangle-Copy-19">
                                    <use fill="#D8D8D8" xlink:href="#path-10"></use>
                                    <use fill-opacity="0.04" fill="#000000" xlink:href="#path-10"></use>
                                </g>
                            </g>
                            <g id="Group-39-Copy" transform="translate(56.000000, 0.000000)">
                                <polygon id="Rectangle-Copy-20" fill="#E7E7E7" points="20 0 68 0 56 24 0 24"></polygon>
                                <g id="Rectangle-Copy-21">
                                    <use fill="#E7E7E7" xlink:href="#path-11"></use>
                                    <use fill-opacity="0.04" fill="#000000" xlink:href="#path-11"></use>
                                </g>
                            </g>
                            <g id="Group-40-Copy">
                                <polygon id="Rectangle-Copy-22" fill="#D8D8D8" points="28 0 76 0 56 24 0 24"></polygon>
                                <g id="Rectangle-Copy-23">
                                    <use fill="#D8D8D8" xlink:href="#path-12"></use>
                                    <use fill-opacity="0.04" fill="#000000" xlink:href="#path-12"></use>
                                </g>
                            </g>
                        </g>
                        <g id="Group-39" transform="translate(56.000000, 0.000000)">
                            <polygon id="Rectangle-Copy-20" fill="#E7E7E7" points="20 0 68 0 56 24 0 24"></polygon>
                            <g id="Rectangle-Copy-21">
                                <use fill="#E7E7E7" xlink:href="#path-13"></use>
                                <use fill-opacity="0.04" fill="#000000" xlink:href="#path-13"></use>
                            </g>
                        </g>
                        <g id="Group-40">
                            <polygon id="Rectangle-Copy-22" fill="#D8D8D8" points="28 0 76 0 56 24 -7.10542736e-15 24"></polygon>
                            <g id="Rectangle-Copy-23">
                                <use fill="#D8D8D8" xlink:href="#path-14"></use>
                                <use fill-opacity="0.04" fill="#000000" xlink:href="#path-14"></use>
                            </g>
                        </g>
                    </g>
                    <g id="Group-36" transform="translate(342.000000, 101.000000)">
                        <path d="M27.8298318,55.1497263 L25.3975721,56.5639343 C23.5641822,57.6299367 21.2137602,57.0078462 20.1477578,55.1744563 C20.1438198,55.1676835 20.1399026,55.1608987 20.1360062,55.1541019 L18.7367115,52.713232 C18.0502229,51.5157505 16.7738559,50.7788397 15.3935622,50.7830639 L12.5800595,50.7916741 C10.459296,50.7981643 8.73481613,49.0842072 8.72832591,46.9634436 C8.72830194,46.9556093 8.72830194,46.9477749 8.72832591,46.9399405 L8.73693613,44.1264378 C8.74116027,42.7461441 8.00424947,41.4697771 6.80676796,40.7832885 L4.36589805,39.3839938 C2.52601787,38.3292327 1.88955307,35.9826624 2.94431414,34.1427822 C2.94821056,34.1359854 2.95212776,34.1292006 2.95606571,34.1224279 L4.37027372,31.6901682 C5.0640788,30.4969108 5.0640788,29.0230892 4.37027372,27.8298318 L2.95606571,25.3975721 C1.89006327,23.5641822 2.51215376,21.2137602 4.34554373,20.1477578 C4.3523165,20.1438198 4.35910131,20.1399026 4.36589805,20.1360062 L6.80676796,18.7367115 C8.00424947,18.0502229 8.74116027,16.7738559 8.73693613,15.3935622 L8.72832591,12.5800595 C8.7218357,10.459296 10.4357928,8.73481613 12.5565564,8.72832591 C12.5643907,8.72830194 12.5722251,8.72830194 12.5800595,8.72832591 L15.3935622,8.73693613 C16.7738559,8.74116027 18.0502229,8.00424947 18.7367115,6.80676796 L20.1360062,4.36589805 C21.1907673,2.52601787 23.5373376,1.88955307 25.3772178,2.94431414 C25.3840146,2.94821056 25.3907994,2.95212776 25.3975721,2.95606571 L27.8298318,4.37027372 C29.0230892,5.0640788 30.4969108,5.0640788 31.6901682,4.37027372 L34.1224279,2.95606571 C35.9558178,1.89006327 38.3062398,2.51215376 39.3722422,4.34554373 C39.3761802,4.3523165 39.3800974,4.35910131 39.3839938,4.36589805 L40.7832885,6.80676796 C41.4697771,8.00424947 42.7461441,8.74116027 44.1264378,8.73693613 L46.9399405,8.72832591 C49.060704,8.7218357 50.7851839,10.4357928 50.7916741,12.5565564 C50.7916981,12.5643907 50.7916981,12.5722251 50.7916741,12.5800595 L50.7830639,15.3935622 C50.7788397,16.7738559 51.5157505,18.0502229 52.713232,18.7367115 L55.1541019,20.1360062 C56.9939821,21.1907673 57.6304469,23.5373376 56.5756859,25.3772178 C56.5717894,25.3840146 56.5678722,25.3907994 56.5639343,25.3975721 L55.1497263,27.8298318 C54.4559212,29.0230892 54.4559212,30.4969108 55.1497263,31.6901682 L56.5639343,34.1224279 C57.6299367,35.9558178 57.0078462,38.3062398 55.1744563,39.3722422 C55.1676835,39.3761802 55.1608987,39.3800974 55.1541019,39.3839938 L52.713232,40.7832885 C51.5157505,41.4697771 50.7788397,42.7461441 50.7830639,44.1264378 L50.7916741,46.9399405 C50.7981643,49.060704 49.0842072,50.7851839 46.9634436,50.7916741 C46.9556093,50.7916981 46.9477749,50.7916981 46.9399405,50.7916741 L44.1264378,50.7830639 C42.7461441,50.7788397 41.4697771,51.5157505 40.7832885,52.713232 L39.3839938,55.1541019 C38.3292327,56.9939821 35.9826624,57.6304469 34.1427822,56.5756859 C34.1359854,56.5717894 34.1292006,56.5678722 34.1224279,56.5639343 L31.6901682,55.1497263 C30.4969108,54.4559212 29.0230892,54.4559212 27.8298318,55.1497263 Z" id="Star" fill="#5F40E5"></path>
                        <path d="M16.8915169,35.04 C17.6857627,35.04 18.3648429,34.9194869 18.9287574,34.6784608 C19.492672,34.4374347 19.9247417,34.0974442 20.2249666,33.6584893 C20.5251915,33.2195344 20.6768925,32.6999715 20.6800695,32.0998005 C20.6768925,31.6911734 20.6030276,31.3288361 20.4584749,31.0127886 C20.3139222,30.6967411 20.1113895,30.4221948 19.8508768,30.1891496 C19.5903642,29.9561045 19.2821968,29.759772 18.9263747,29.600152 C18.5705526,29.4405321 18.1797836,29.3128361 17.7540678,29.2170641 L17.7540678,29.2170641 L16.8772204,29.0063658 C16.6643626,28.9584798 16.4642126,28.9002185 16.2767706,28.8315819 C16.0893286,28.7629454 15.9241254,28.6815392 15.7811612,28.5873634 C15.6381969,28.4931876 15.5262083,28.3806556 15.4451952,28.2497672 C15.3641821,28.1188789 15.3268526,27.9656437 15.3332065,27.7900618 C15.3332065,27.5793634 15.3943635,27.3910119 15.5166773,27.2250071 C15.6389912,27.0590024 15.816108,26.9289121 16.0480278,26.8347363 C16.2799476,26.7405606 16.5642876,26.6934727 16.9010478,26.6934727 C17.3966572,26.6934727 17.7890147,26.8004181 18.0781201,27.0143088 C18.3672256,27.2281995 18.5308403,27.528285 18.5689641,27.9145653 L18.5689641,27.9145653 L20.5466362,27.9145653 C20.5371052,27.3303563 20.3814331,26.81638 20.0796196,26.3726366 C19.7778062,25.9288931 19.3560617,25.5825178 18.814386,25.3335107 C18.2727104,25.0845036 17.6396964,24.96 16.9153442,24.96 C16.2037,24.96 15.5683033,25.0845036 15.0091542,25.3335107 C14.4500052,25.5825178 14.0107872,25.9288931 13.6915004,26.3726366 C13.3722136,26.81638 13.2141587,27.3351449 13.2173356,27.9289311 C13.2141587,28.6536057 13.4508439,29.2298337 13.9273914,29.6576152 C14.4039389,30.0853967 15.053632,30.399848 15.8764707,30.6009691 L15.8764707,30.6009691 L16.9391716,30.8691306 C17.2949938,30.9553254 17.5960129,31.0510974 17.8422291,31.1564466 C18.0884453,31.2617957 18.2758874,31.3894917 18.4045552,31.5395344 C18.533223,31.6895772 18.5975569,31.8747363 18.5975569,32.0950119 C18.5975569,32.3312494 18.5260748,32.5403515 18.3831105,32.7223183 C18.2401463,32.904285 18.0392021,33.0463468 17.780278,33.1485036 C17.5213538,33.2506603 17.2171577,33.3017387 16.8676895,33.3017387 C16.5118674,33.3017387 16.1933748,33.2466698 15.9122118,33.1365321 C15.6310487,33.0263943 15.4070714,32.8619857 15.2402798,32.6433064 C15.0734882,32.4246271 14.9789729,32.1508789 14.956734,31.8220618 L14.956734,31.8220618 L12.96,31.8220618 C12.9758849,32.5275819 13.1466478,33.1189739 13.4722886,33.5962375 C13.7979294,34.0735012 14.252238,34.4334442 14.8352144,34.6760665 C15.4181908,34.9186888 16.103625,35.04 16.8915169,35.04 Z M23.5155178,34.9011306 L24.2392227,32.664919 L27.7633529,32.664919 L28.4859082,34.9011306 L30.6970886,34.9011306 L27.3326633,25.0940808 L24.6735282,25.0940808 L21.3043374,34.9011306 L23.5155178,34.9011306 Z M27.2399894,31.0467557 L24.7633318,31.0467557 L25.9649719,27.3351449 L26.0412195,27.3351449 L27.2399894,31.0467557 Z M38.1149879,34.9011306 L38.1149879,33.191601 L33.9309008,33.191601 L33.9309008,25.0940808 L31.8674502,25.0940808 L31.8674502,34.9011306 L38.1149879,34.9011306 Z M46.08,34.9011306 L46.08,33.191601 L41.5480333,33.191601 L41.5480333,30.8499762 L45.7225894,30.8499762 L45.7225894,29.1404466 L41.5480333,29.1404466 L41.5480333,26.8036105 L46.0609381,26.8036105 L46.0609381,25.0940808 L39.4845826,25.0940808 L39.4845826,34.9011306 L46.08,34.9011306 Z" id="SALE" fill="#FFFFFF" fill-rule="nonzero"></path>
                    </g>
                </g>
            </g>
        </g>
    </g>
</svg>